<svg height="480pt" viewBox="0 0 480 480" width="480pt" xmlns="http://www.w3.org/2000/svg"><path d="m104 219.441406v63.566406c0 28.703126-9.648438 56.574219-27.390625 79.136719l-4.609375 5.855469h136v-21.039062c-42.894531-13.917969-71.960938-53.863282-72-98.960938v-28.960938c0-22.957031 7.25-45.328124 20.71875-63.917968l.5625.480468c51.007812 47.085938 117.328125 74.136719 186.71875 76.160157v16.238281c.019531 45.117188-29.066406 85.09375-72 98.960938v21.039062h136l-3.199219-3.929688c-18.625-22.835937-28.796875-51.402343-28.800781-80.871093v-67.199219c-.039062-59.699219-38.957031-112.414062-96-130.03125-13.199219-4.039062-26.9375-6.054688-40.742188-5.96875-75.386718.398438-135.257812 64.054688-135.257812 139.441406zm0 0" fill="#9bc9ff"/><path d="m240 424c-17.671875 0-32-14.328125-32-32h-40c-44.183594 0-80 35.816406-80 80h304c0-44.183594-35.816406-80-80-80h-40c0 17.671875-14.328125 32-32 32zm0 0" fill="#9bc9ff"/><path d="m216 248c0 4.417969-3.582031 8-8 8s-8-3.582031-8-8 3.582031-8 8-8 8 3.582031 8 8zm0 0" fill="#9bc9ff"/><path d="m280 248c0 4.417969-3.582031 8-8 8s-8-3.582031-8-8 3.582031-8 8-8 8 3.582031 8 8zm0 0" fill="#9bc9ff"/><path d="m280 40h192v16h-192zm0 0" fill="#9bc9ff"/><g fill="#1e81ce"><path d="m224 248c0 8.835938-7.164062 16-16 16s-16-7.164062-16-16 7.164062-16 16-16 16 7.164062 16 16zm0 0"/><path d="m288 248c0 8.835938-7.164062 16-16 16s-16-7.164062-16-16 7.164062-16 16-16 16 7.164062 16 16zm0 0"/><path d="m212.800781 289.601562c-3.535156-2.652343-8.550781-1.9375-11.199219 1.597657-2.652343 3.535156-1.9375 8.550781 1.597657 11.199219l3.199219 2.402343c19.945312 14.835938 47.257812 14.835938 67.203124 0l3.199219-2.402343c3.535157-2.648438 4.25-7.664063 1.597657-11.199219-2.648438-3.535157-7.664063-4.25-11.199219-1.597657l-3.199219 2.398438c-14.242188 10.601562-33.757812 10.601562-48 0zm0 0"/><path d="m456 0h-160c-13.253906 0-24 10.746094-24 24v51.6875c-10.496094-2.414062-21.230469-3.652344-32-3.6875h-.800781c-80.085938 1.574219-143.964844 67.351562-143.199219 147.449219v63.558593c-.039062 26.90625-9.082031 53.023438-25.6875 74.191407l-4.601562 5.855469c-1.890626 2.410156-2.242188 5.6875-.90625 8.441406 1.339843 2.753906 4.132812 4.503906 7.195312 4.503906h128v8h-32c-48.578125.058594-87.941406 39.421875-88 88 0 4.417969 3.582031 8 8 8h304c4.417969 0 8-3.582031 8-8-.058594-48.578125-39.421875-87.941406-88-88h-32v-8h128c3.089844 0 5.902344-1.777344 7.226562-4.566406 1.324219-2.792969.925782-6.097656-1.027343-8.488282l-3.199219-3.929687c-17.4375-21.421875-26.972656-48.191406-27-75.816406v-67.199219c.015625-25.296875-6.6875-50.140625-19.414062-72h91.414062c13.253906 0 24-10.746094 24-24v-96c0-13.253906-10.746094-24-24-24zm-160 16h160c4.417969 0 8 3.582031 8 8v8h-176v-8c0-4.417969 3.582031-8 8-8zm-137.65625 151.199219c49.550781 43.136719 112.0625 68.527343 177.65625 72.160156v8.640625c.121094 41.675781-26.765625 78.632812-66.457031 91.34375-19.195313 6.167969-39.84375 6.167969-59.039063 0-14.445312-4.699219-27.578125-12.746094-38.320312-23.488281-18.082032-17.945313-28.230469-42.378907-28.183594-67.855469v-28.960938c-.03125-18.261718 4.929688-36.1875 14.34375-51.839843zm57.65625 190.214843c15.816406 3.433594 32.183594 3.433594 48 0v34.585938c0 13.253906-10.746094 24-24 24s-24-10.746094-24-24zm167.550781 106.585938h-287.101562c4.113281-36.417969 34.898437-63.957031 71.550781-64h32.800781c0 .144531.09375.273438.128907.414062.492187 2.28125 1.1875 4.507813 2.070312 6.664063.3125.800781.734375 1.472656 1.097656 2.21875.683594 1.457031 1.457032 2.871094 2.308594 4.238281.515625.800782 1.097656 1.527344 1.65625 2.289063.886719 1.1875 1.832031 2.332031 2.832031 3.421875.671875.714844 1.371094 1.378906 2.089844 2.042968 1.070313.992188 2.195313 1.921876 3.375 2.78125.800781.585938 1.601563 1.144532 2.402344 1.671876 1.273437.789062 2.59375 1.503906 3.949219 2.144531.855468.417969 1.679687.847656 2.5625 1.203125 1.554687.585937 3.144531 1.082031 4.757812 1.476562.800781.210938 1.542969.480469 2.402344.640625 5.011718 1.023438 10.183594 1.023438 15.199218 0 .800782-.160156 1.597657-.429687 2.359376-.640625 1.628906-.394531 3.230468-.886718 4.800781-1.476562.878906-.355469 1.703125-.800782 2.558593-1.203125 1.355469-.640625 2.675782-1.355469 3.953126-2.144531.800781-.527344 1.597656-1.085938 2.398437-1.671876 1.179687-.859374 2.304687-1.789062 3.375-2.78125.722656-.664062 1.417969-1.328124 2.089844-2.042968 1.003906-1.089844 1.949219-2.234375 2.832031-3.421875.558594-.761719 1.144531-1.488281 1.65625-2.289063.851562-1.367187 1.625-2.78125 2.3125-4.238281.359375-.746094.800781-1.449219 1.09375-2.21875.886719-2.15625 1.578125-4.382813 2.074219-6.664063 0-.140624.09375-.269531.128906-.414062h32.734375c36.652344.042969 67.4375 27.582031 71.550781 64zm8.226563-104h-111.777344v-7.457031c43.429688-16.453125 72.113281-58.101563 72-104.542969v-16.238281c-.046875-.472657-.140625-.933594-.28125-1.386719-.050781-.542969-.160156-1.078125-.328125-1.597656-.214844-.46875-.484375-.90625-.796875-1.3125-.230469-.441406-.496094-.859375-.800781-1.25-.386719-.335938-.804688-.636719-1.25-.894532-.390625-.324218-.816407-.609374-1.261719-.847656-.484375-.164062-.976562-.28125-1.480469-.351562-.488281-.164063-.992187-.28125-1.503906-.34375-67.558594-1.972656-132.113281-28.339844-181.738281-74.226563l-.558594-.480469c-.089844-.078124-.199219-.09375-.289062-.167968-.085938-.070313-.136719-.175782-.230469-.246094-.382813-.21875-.785157-.402344-1.199219-.542969-.394531-.230469-.8125-.425781-1.242188-.578125-3.230468-.988281-6.738281.175782-8.734374 2.90625-14.523438 19.921875-22.335938 43.945313-22.304688 68.597656v28.960938c-.085938 46.402344 28.597656 87.996094 72 104.40625v7.59375h-111.894531c15.523437-22.675781 23.851562-49.507812 23.894531-76.992188v-63.558593c-.777344-71.304688 56.003906-129.941407 127.296875-131.449219h.703125c70.679688.027344 127.972656 57.320312 128 128v67.199219c.03125 27.40625 8.316406 54.171875 23.777344 76.800781zm64.222656-232h-102.183594c-3.707031-4.851562-7.714844-9.464844-12-13.816406-15.179687-15.167969-33.570312-26.734375-53.816406-33.847656v-16.335938h176v56c0 4.417969-3.582031 8-8 8zm0 0"/><path d="m424 72c-5.921875.019531-11.625 2.246094-16 6.238281-9.589844-8.714843-24.363281-8.242187-33.378906 1.0625-9.019532 9.308594-9.019532 24.089844 0 33.398438 9.015625 9.304687 23.789062 9.777343 33.378906 1.0625 7.945312 7.222656 19.722656 8.285156 28.835938 2.605469 9.113281-5.679688 13.34375-16.722657 10.359374-27.039063-2.984374-10.3125-12.457031-17.390625-23.195312-17.328125zm-32 32c-4.417969 0-8-3.582031-8-8s3.582031-8 8-8 8 3.582031 8 8-3.582031 8-8 8zm32 0c-4.417969 0-8-3.582031-8-8s3.582031-8 8-8 8 3.582031 8 8-3.582031 8-8 8zm0 0"/><path d="m144 72c0-39.765625-32.234375-72-72-72s-72 32.234375-72 72 32.234375 72 72 72c39.746094-.042969 71.957031-32.253906 72-72zm-128 0c0-30.929688 25.070312-56 56-56s56 25.070312 56 56-25.070312 56-56 56c-30.910156-.039062-55.960938-25.089844-56-56zm0 0"/><path d="m80 120v-9.472656c11.011719-3.878906 17.621094-15.132813 15.644531-26.640625-1.980469-11.507813-11.96875-19.910157-23.644531-19.886719-4.417969 0-8-3.582031-8-8s3.582031-8 8-8 8 3.582031 8 8h16c-.042969-10.132812-6.445312-19.148438-16-22.527344v-9.472656h-16v9.472656c-11.011719 3.878906-17.621094 15.132813-15.644531 26.640625 1.980469 11.507813 11.96875 19.910157 23.644531 19.886719 4.417969 0 8 3.582031 8 8s-3.582031 8-8 8-8-3.582031-8-8h-16c.042969 10.132812 6.445312 19.148438 16 22.527344v9.472656zm0 0"/></g></svg>