<svg height="512" viewBox="0 0 40 60" width="512" xmlns="http://www.w3.org/2000/svg"><g id="098---Selfies" fill="none"><g id="Icons" transform="translate(1 1)"><path id="Shape" d="m27 47.95s-1.01 2.01-4.99 4.27c-.623841.3525059-1.0097125 1.0134542-1.01 1.73v2.05c-.0032948 1.1032019-.8967981 1.9967052-2 2h-12c-1.10320187-.0032948-1.9967052-.8967981-2-2v-1c0-1.83-1.29-3.38-2.21-4.87-1.74-2.83-2.52-2.96-2.76-6.18-.13-1.65.22-6.16.26-7.83.02-.92-.02-4.08-.06-6.98-.00588674-1.4788023.62237855-2.8891974 1.72565124-3.8739208 1.10327269-.9847235 2.5757162-1.4493111 4.04434876-1.2760792v20.96c0 1.6568542 1.34314575 3 3 3z" fill="#dfc49c"/><path id="Shape" d="m31 3v41.95c0 1.6568542-1.3431458 3-3 3h-19c-1.65685425 0-3-1.3431458-3-3v-41.95c0-1.65685425 1.34314575-3 3-3h19c1.6568542 0 3 1.34314575 3 3z" fill="#00838f"/><path id="Shape" d="m28 3v41.95c0 1.6568542-1.3431458 3-3 3h-16c-1.65685425 0-3-1.3431458-3-3v-41.95c0-1.65685425 1.34314575-3 3-3h16c1.6568542 0 3 1.34314575 3 3z" fill="#00bcd4"/><path id="Shape" d="m26 0-1.45 2.89c-.33773.67965768-1.031056 1.10959727-1.79 1.11h-8.52c-.758944-.00040273-1.45227-.43034232-1.79-1.11l-1.45-2.89z" fill="#37474f"/><path id="Shape" d="m23 0-1.45 2.89c-.33773.67965768-1.031056 1.10959727-1.79 1.11h-5.52c-.758944-.00040273-1.45227-.43034232-1.79-1.11l-1.45-2.89z" fill="#607d8b"/><path id="Shape" d="m23.98 17.56-5.24-2.24c1.1194258-.9643083 2.1198265-2.0587064 2.98-3.26 1.6530395 1.3196946 2.5075782 3.3993243 2.26 5.5z" fill="#783e22"/><path id="Shape" d="m23.98 17.56c-.471 8.371-10.147 8.666-10.93.38 2.0920109-.2893979 4.0530676-1.186477 5.64-2.58.103-.051-.448-.253 5.29 2.2z" fill="#dfc49c"/><path id="Shape" d="m21.36 16.5c-.2 3.526-2.308 6.677-5.91 6.42-1.4282776-1.2764057-2.2914862-3.0675636-2.4-4.98 2.0920109-.2893979 4.0530676-1.186477 5.64-2.58z" fill="#ffe0b2"/><path id="Shape" d="m26 31.8v5.2c0 .5522847-.4477153 1-1 1h-13c-.5522847 0-1-.4477153-1-1v-3.56c6 0 6-4.39 6-4.39.0941555-1.0717167-.6897503-2.0204209-1.76-2.13-.66-.08-1.47-.2-2.34-.38 1.0607582-1.2260548 2.4999482-2.0635297 4.09-2.38 4.564-1.04 9.01 2.713 9.01 7.64z" fill="#bb193b"/><path id="Shape" d="m23 31.8v5.2c0 .5522847-.4477153 1-1 1h-10c-.5522847 0-1-.4477153-1-1v-3.56c6 0 6-4.39 6-4.39.0941555-1.0717167-.6897503-2.0204209-1.76-2.13-.66-.08-1.47-.2-2.34-.38 1.0607582-1.2260548 2.4999482-2.0635297 4.09-2.38 3.5473728.8217111 6.0466943 3.9988852 6.01 7.64z" fill="#ef314c"/><path id="Shape" d="m21.72 12.06c-2.131 2.93-5.046 5.463-8.67 5.88-.598-6.182 5.182-8.515 8.67-5.88z" fill="#a0522d"/><path id="Shape" d="m35.11 21.74-4.09 1.69c0-1.65.013-.346-.01-6.52 1.735-.694 1.307-.526 1.88-.75 1.5408745-.6130361 3.2869639.1391255 3.9 1.68s-.1391255 3.2869639-1.68 3.9z" fill="#dfc49c"/><path id="Shape" d="m38 29.95c0 1.6568542-1.3431458 3-3 3h-3c-1.6568542 0-3-1.3431458-3-3s1.3431458-3 3-3h3c1.6568542 0 3 1.3431458 3 3z" fill="#dfc49c"/><path id="Shape" d="m37 35.95c0 1.6568542-1.3431458 3-3 3-1.0032115.0997998-2.0159187.0390374-3-.18-1.2811818-.4545263-2.0953393-1.7151592-1.98264-3.069899.1126994-1.3547397 1.1239656-2.4635177 2.46264-2.700101.207 0-.577-.05 2.52-.05 1.6568542 0 3 1.3431458 3 3z" fill="#dfc49c"/><path id="Shape" d="m36.03 41.95c0 1.6568542-1.3431458 3-3 3h-1.03c-1.6568542 0-3-1.3431458-3-3s1.3431458-3 3-3h1.03c1.6568542 0 3 1.3431458 3 3z" fill="#dfc49c"/><g fill="#ffe0b2"><path id="Shape" d="m32.11 21.74-1.1.45v-5.28l1.44-.58c1.0135185.561372 1.6131876 1.6561796 1.5405168 2.8125001-.0726707 1.1563205-.80469 2.1674361-1.8805168 2.5974999z"/><circle id="Oval" cx="32" cy="29.95" r="3"/><path id="Shape" d="m34 35.95c.0043417 1.4603943-1.0496126 2.709055-2.49 2.95-.1752713-.0191135-.3469659-.0628788-.51-.13-1.2811818-.4545263-2.0953393-1.7151592-1.98264-3.069899.1126994-1.3547397 1.1239656-2.4635177 2.46264-2.700101h.02c1.4443632.2365682 2.5035392 1.4863958 2.5 2.95z"/><path id="Shape" d="m31.02 44.79c-1.2077589-.421522-2.0168068-1.5607962-2.0168068-2.84s.8090479-2.418478 2.0168068-2.84c1.2028349.4261868 2.0067351 1.5638938 2.0067351 2.84s-.8039002 2.4138132-2.0067351 2.84z"/><path id="Shape" d="m24 47.95s-1.01 2.01-4.99 4.27c-.623841.3525059-1.0097125 1.0134542-1.01 1.73v2.05c-.0032948 1.1032019-.8967981 1.9967052-2 2h-9c-1.10320187-.0032948-1.9967052-.8967981-2-2v-1c0-1.83-1.29-3.38-2.21-4.87-1.74-2.83-2.52-2.96-2.76-6.18-.13-1.65.22-6.16.26-7.83.02-.92-.02-4.08-.06-6.98-.0179223-2.6958673 2.04856175-4.9482302 4.736-5.162 4.462 0 2.426 1.979 10.274 2.942.9996574.1030061 1.7596558.9450497 1.76 1.95 0 4.909-7.194 5.717-11 3.15v12.93c0 1.6568542 1.34314575 3 3 3z"/></g></g><g id="Outline" fill="#000"><path id="Shape" d="m36 26.951h-3v-1.841l3.477-1.437c2.0544993-.8162769 3.0582769-3.1435007 2.242-5.198s-3.1435007-3.0582769-5.198-2.242l-.521.207v-12.44c0-2.209139-1.790861-4-4-4h-19c-2.209139 0-4 1.790861-4 4v19.969c-3.26159055.1963827-5.79693899 2.9146491-5.766 6.182.13774447 3.0618944.12105663 6.1287859-.05 9.189-.109 2-.244 4.494-.155 5.685.01943702 1.8024007.65018846 3.5448119 1.789 4.942 1.024 1.464.844 1.281 1.672 2.541 1.662 2.528 1.51 2.892 1.51 4.492 0 1.6568542 1.34314575 3 3 3h12c1.6568542 0 3-1.3431458 3-3v-2.049c-.0005188-.3568753.1903171-.6866396.5-.864 1.9576908-1.0022108 3.677432-2.4129919 5.043-4.137h.457c1.8236552-.0065302 3.4120219-1.2457194 3.862-3.013.047 0 .091.014.138.014h1.03c1.5593205.0026981 2.976955-.9043353 3.6279726-2.3212559.6510175-1.4169205.4157961-3.0833742-.6019726-4.2647441 1.0091099-.5958764 1.7017168-1.6088798 1.8907752-2.7654386.1890585-1.1565589-.1449324-2.3373765-.9117752-3.2235614 1.5457845-.9173371 2.2878457-2.754635 1.812723-4.4881908-.4751227-1.7335557-2.050237-2.9357759-3.847723-2.9368092zm0 2c1.1045695 0 2 .8954305 2 2s-.8954305 2-2 2h-3c-1.1045695 0-2-.8954305-2-2s.8954305-2 2-2zm-1 10h-2c-1.1045695 0-2-.8954305-2-2s.8954305-2 2-2h2c1.1045695 0 2 .8954305 2 2s-.8954305 2-2 2zm-.742-20.858c1.0289065-.4056531 2.1918469.0995935 2.5975 1.1285s-.0995935 2.1918469-1.1285 2.5975l-2.727 1.128v-4.355zm-19.022-14.093c-.3791342.00145101-.7260065-.21311316-.894-.553l-.724-1.447h11.764l-.724 1.447c-.1679935.33988684-.5148658.55445101-.894.553zm7.284 48.347c-.9365013.5311332-1.51658 1.5233731-1.52 2.6v2.053c0 .5522847-.4477153 1-1 1h-12c-.55228475 0-1-.4477153-1-1v-1c0-2.147-1.389-3.829-2.356-5.4-1.777-2.881-2.4-2.823-2.621-5.727-.116-1.559.223-6.081.268-7.733.025-1-.028-4.664-.057-7.016-.00745058-1.1005629.42268193-2.1589925 1.19574065-2.9423662s1.82569442-1.2274968 2.92625935-1.2346338c2.293 0 3.058 1.44 5.372 2.1 1.442803.3973206 2.9137003.6844799 4.4.859.4927625.0516252.8690714.4635891.876.959v.167c-.007.349-.207 3.5-5 3.4-.0619777-.0048459-.1243203.0015916-.184.019-.765.063-4.263-.649-4.921-1.966-.24852815-.4942948-.85070515-.6935281-1.34499998-.445-.49429484.2485282-.69352813.8507052-.44500002 1.345.22138778.4233795.52417581.798891.891 1.105v12.46c0 2.209139 1.790861 4 4 4h15.866c-1.0158278.9294832-2.1391314 1.7341929-3.346 2.397zm1.4-35.329-2.381-1.018c.441-.449.874-.927 1.292-1.446.5790551.7076848.9550984 1.5593123 1.088 2.464zm-8.9.711c.159-3.714 3.377-5.584 6.213-4.377-1.5460411 2.0886775-3.7240132 3.6235324-6.211 4.377zm4.871-.256 4.022 1.719c-.876 6.251-7.488 6.433-8.73.565 1.7204917-.4011004 3.3296683-1.1814314 4.71-2.284zm6.109 15.327v5.2h-2v-4c0-.5522847-.4477153-1-1-1s-1 .4477153-1 1v4h-5c0-4.958 0-3.87-.009-4.043 1.2318881-1.006426 1.9651521-2.4988683 2.009-4.089-.0074583-1.5645179-1.2220165-2.8576318-2.783-2.963 2.0583034-1.1733449 4.5900176-1.1427074 6.6193239.0801037s3.2393277 3.4468532 3.1636761 5.8148963zm-13 5.2v-2.612c.679039-.0507508 1.3500568-.1789152 2-.382v2.994zm16 9.95h-19c-1.1045695 0-2-.8954305-2-2v-11.3c.96427671.3752102 1.97236888.6262252 3 .747v2.603c0 1.1045695.8954305 2 2 2h13c1.1045695 0 2-.8954305 2-2v-5.2c.0048568-3.397463-1.9249544-6.5013009-4.974-8 1.8190367-1.5688708 2.8913752-3.8326562 2.953-6.234.2355619-2.4230643-.7692846-4.801063-2.671-6.321-4.253-3.081-10.308-.245-10.308 5.755-.069208 2.5838764 1.0082097 5.0660008 2.943 6.78-.8824405.4144345-1.6860813.9791825-2.375 1.669-.422-.093-.857-.2-1.294-.323-1.616-.461-2.4-1.515-4.274-1.981v-20.145c0-1.1045695.8954305-2 2-2h1.382l1.171 2.342c.5055177 1.01859802 1.5458642 1.66149571 2.683 1.658h8.528c1.1371358.00349571 2.1774823-.63940198 2.683-1.658l1.171-2.342h1.382c1.1045695 0 2 .8954305 2 2v23.507c-1.1192791.637351-1.8584281 1.7794727-1.9813893 3.0616126-.1229613 1.2821398.3856453 2.5439252 1.3633893 3.3823874-.8757593.7517221-1.3804092 1.8477971-1.3821381 3.0019363s.4996349 2.2517212 1.3731381 3.0060637c-.9662564.8343205-1.4710332 2.0832945-1.3558117 3.3546978.1152216 1.2714032.8363081 2.4092828 1.9368117 3.0563022-.1978594.921179-1.0118117 1.5793391-1.954 1.58zm5.03-3h-1.03c-1.1045695 0-2-.8954305-2-2s.8954305-2 2-2h1.03c1.1045695 0 2 .8954305 2 2s-.8954305 2-2 2z"/><path id="Shape" d="m25 44h-11c-.5522847 0-1 .4477153-1 1s.4477153 1 1 1h11c.5522847 0 1-.4477153 1-1s-.4477153-1-1-1z"/></g></g></svg>