<svg height="511pt" viewBox="1 -1 511.99983 511" width="511pt" xmlns="http://www.w3.org/2000/svg"><path d="m341.332031 253.09375c0 47.128906-38.203125 85.332031-85.332031 85.332031-47.125 0-85.328125-38.203125-85.328125-85.332031 0-47.125 38.203125-85.328125 85.328125-85.328125 47.128906 0 85.332031 38.203125 85.332031 85.328125zm0 0" fill="#d9d9d9"/><path d="m221.867188 295.757812v-85.328124l85.332031 42.664062zm0 0" fill="#ea6b65"/><path d="m136.539062 398.15625c-14.136718 0-25.601562-11.457031-25.601562-25.597656 0-6.792969 2.699219-13.308594 7.503906-18.109375 10.132813-9.667969 26.074219-9.667969 36.203125 0 9.996094 9.996093 9.996094 26.199219 0 36.195312-4.789062 4.824219-11.308593 7.527344-18.105469 7.511719zm0 0" fill="#fbd699"/><path d="m25.609375 398.15625c-14.136719 0-25.6015625-11.457031-25.6015625-25.597656 0-6.792969 2.6992185-13.308594 7.5039065-18.109375 10.132812-9.667969 26.074219-9.667969 36.203125 0 9.996094 9.996093 9.996094 26.199219 0 36.195312-4.789063 4.824219-11.308594 7.527344-18.105469 7.511719zm0 0" fill="#fbb540"/><path d="m136.539062 509.085938c-14.136718-.023438-25.582031-11.5-25.5625-25.636719.023438-14.140625 11.5-25.582031 25.636719-25.5625 14.140625.019531 25.582031 11.5 25.5625 25.636719-.003906 3.511718-.734375 6.984374-2.136719 10.203124-4.078124 9.339844-13.308593 15.375-23.5 15.359376zm0 0" fill="#fbb540"/><path d="m156.210938 340.824219 17.667968-17.070313 11.859375 12.273438-17.667969 17.070312zm0 0" fill="#b3e4e8"/><path d="m68.273438 364.023438h25.601562v17.066406h-25.601562zm0 0" fill="#b3e4e8"/><path d="m128.003906 415.222656h17.066406v25.597656h-17.066406zm0 0" fill="#b3e4e8"/><path d="m136.539062 398.15625c-14.136718 0-25.601562-11.457031-25.601562-25.597656 0-6.792969 2.699219-13.308594 7.503906-18.109375 10.132813-9.667969 26.074219-9.667969 36.203125 0 9.996094 9.996093 9.996094 26.199219 0 36.195312-4.789062 4.824219-11.308593 7.527344-18.105469 7.511719zm0 0" fill="#f7ba61"/><path d="m25.609375 398.15625c-14.136719 0-25.6015625-11.457031-25.6015625-25.597656 0-6.792969 2.6992185-13.308594 7.5039065-18.109375 10.132812-9.667969 26.074219-9.667969 36.203125 0 9.996094 9.996093 9.996094 26.199219 0 36.195312-4.789063 4.824219-11.308594 7.527344-18.105469 7.511719zm0 0" fill="#fbb540"/><path d="m136.539062 509.085938c-14.136718-.023438-25.582031-11.5-25.5625-25.636719.023438-14.140625 11.5-25.582031 25.636719-25.5625 14.140625.019531 25.582031 11.5 25.5625 25.636719-.003906 3.511718-.734375 6.984374-2.136719 10.203124-4.078124 9.339844-13.308593 15.375-23.5 15.359376zm0 0" fill="#fbb540"/><path d="m156.210938 340.824219 17.667968-17.070313 11.859375 12.273438-17.667969 17.070312zm0 0" fill="#b3e4e8"/><path d="m68.273438 364.023438h25.601562v17.066406h-25.601562zm0 0" fill="#b3e4e8"/><path d="m136.539062 159.230469c-14.136718.003906-25.601562-11.457031-25.601562-25.59375 0-6.792969 2.699219-13.308594 7.503906-18.113281 10.132813-9.65625 26.0625-9.65625 36.195313 0 10 9.996093 10.007812 26.203124.011719 36.203124-4.800782 4.804688-11.316407 7.503907-18.109376 7.503907zm0 0" fill="#b3e4e8"/><path d="m25.609375 159.230469c-14.136719.003906-25.6015625-11.457031-25.6015625-25.59375 0-6.792969 2.6992185-13.308594 7.5039065-18.113281 10.132812-9.65625 26.0625-9.65625 36.195312 0 10 9.996093 10.007813 26.203124.011719 36.203124-4.800781 4.804688-11.316406 7.503907-18.109375 7.503907zm0 0" fill="#fbb540"/><path d="m156.210938 165.355469 11.855468-12.277344 17.671875 17.0625-11.855469 12.277344zm0 0" fill="#b3e4e8"/><path d="m68.273438 125.097656h25.601562v17.066406h-25.601562zm0 0" fill="#b3e4e8"/><path d="m136.539062 159.230469c-14.136718.003906-25.601562-11.457031-25.601562-25.59375 0-6.792969 2.699219-13.308594 7.503906-18.113281 10.132813-9.65625 26.0625-9.65625 36.195313 0 10 9.996093 10.007812 26.203124.011719 36.203124-4.800782 4.804688-11.316407 7.503907-18.109376 7.503907zm0 0" fill="#f7ba61"/><path d="m25.609375 159.230469c-14.136719.003906-25.6015625-11.457031-25.6015625-25.59375 0-6.792969 2.6992185-13.308594 7.5039065-18.113281 10.132812-9.65625 26.0625-9.65625 36.195312 0 10 9.996093 10.007813 26.203124.011719 36.203124-4.800781 4.804688-11.316406 7.503907-18.109375 7.503907zm0 0" fill="#fbb540"/><path d="m156.210938 165.355469 11.855468-12.277344 17.671875 17.0625-11.855469 12.277344zm0 0" fill="#b3e4e8"/><path d="m68.273438 125.097656h25.601562v17.066406h-25.601562zm0 0" fill="#b3e4e8"/><path d="m375.464844 159.230469c-14.140625.003906-25.601563-11.457031-25.605469-25.59375 0-6.789063 2.695313-13.300781 7.496094-18.101563 10.132812-9.671875 26.074219-9.671875 36.207031 0 9.996094 9.996094 9.992188 26.207032-.007812 36.199219-4.796876 4.800781-11.304688 7.496094-18.089844 7.496094zm0 0" fill="#fbd699"/><path d="m486.390625 159.230469c-14.136719.003906-25.597656-11.457031-25.601563-25.59375 0-6.789063 2.695313-13.300781 7.496094-18.101563 10.132813-9.671875 26.074219-9.671875 36.207032 0 9.992187 9.996094 9.992187 26.207032-.007813 36.199219-4.796875 4.800781-11.304687 7.496094-18.09375 7.496094zm0 0" fill="#fbd699"/><path d="m326.265625 170.15625 17.667969-17.066406 11.855468 12.273437-17.667968 17.066407zm0 0" fill="#fbd699"/><path d="m418.128906 125.097656h25.597656v17.066406h-25.597656zm0 0" fill="#b3e4e8"/><path d="m375.464844 159.230469c-14.140625.003906-25.601563-11.457031-25.605469-25.59375 0-6.789063 2.695313-13.300781 7.496094-18.101563 10.132812-9.671875 26.074219-9.671875 36.207031 0 9.996094 9.996094 9.992188 26.207032-.007812 36.199219-4.796876 4.800781-11.304688 7.496094-18.089844 7.496094zm0 0" fill="#f7ba61"/><path d="m486.390625 159.230469c-14.136719.003906-25.597656-11.457031-25.601563-25.59375 0-6.789063 2.695313-13.300781 7.496094-18.101563 10.132813-9.671875 26.074219-9.671875 36.207032 0 9.992187 9.996094 9.992187 26.207032-.007813 36.199219-4.796875 4.800781-11.304687 7.496094-18.09375 7.496094zm0 0" fill="#fbb540"/><path d="m326.265625 170.15625 17.667969-17.066406 11.855468 12.273437-17.667968 17.066407zm0 0" fill="#b3e4e8"/><path d="m418.128906 125.097656h25.597656v17.066406h-25.597656zm0 0" fill="#b3e4e8"/><path d="m128.003906 415.222656h17.066406v25.597656h-17.066406zm0 0" fill="#b3e4e8"/><g fill="#fbd699"><path d="m375.464844 398.15625c-6.792969.019531-13.308594-2.679688-18.101563-7.492188-9.996093-9.996093-9.996093-26.207031 0-36.203124v-.003907c10.132813-9.667969 26.074219-9.667969 36.207031 0 9.996094 10 9.992188 26.207031-.003906 36.203125-4.804687 4.800782-11.3125 7.496094-18.101562 7.496094zm0 0"/><path d="m486.390625 398.15625c-6.789063.019531-13.304687-2.679688-18.097656-7.492188-9.996094-9.996093-10-26.207031-.003907-36.203124.003907 0 .003907-.003907.003907-.003907 10.132812-9.667969 26.074219-9.667969 36.207031 0 9.996094 10 9.992188 26.207031-.007812 36.203125-4.800782 4.800782-11.3125 7.496094-18.101563 7.496094zm0 0"/><path d="m375.507812 509.085938c-10.191406.011718-19.417968-6.023438-23.492187-15.359376-5.65625-12.960937.261719-28.046874 13.222656-33.703124 12.957031-5.65625 28.046875.265624 33.699219 13.222656 5.65625 12.957031-.265625 28.046875-13.222656 33.703125-3.21875 1.402343-6.695313 2.132812-10.207032 2.136719zm0 0"/><path d="m418.128906 364.023438h25.597656v17.066406h-25.597656zm0 0"/><path d="m366.929688 415.222656h17.066406v25.597656h-17.066406zm0 0"/></g><path d="m375.464844 398.15625c-6.792969.019531-13.308594-2.679688-18.101563-7.492188-9.996093-9.996093-9.996093-26.207031 0-36.203124v-.003907c10.132813-9.667969 26.074219-9.667969 36.207031 0 9.996094 10 9.992188 26.207031-.003906 36.203125-4.804687 4.800782-11.3125 7.496094-18.101562 7.496094zm0 0" fill="#f7ba61"/><path d="m486.390625 398.15625c-6.789063.019531-13.304687-2.679688-18.097656-7.492188-9.996094-9.996093-10-26.207031-.003907-36.203124.003907 0 .003907-.003907.003907-.003907 10.132812-9.667969 26.074219-9.667969 36.207031 0 9.996094 10 9.992188 26.207031-.007812 36.203125-4.800782 4.800782-11.3125 7.496094-18.101563 7.496094zm0 0" fill="#fbb540"/><path d="m375.507812 509.085938c-10.191406.011718-19.417968-6.023438-23.492187-15.359376-5.65625-12.960937.261719-28.046874 13.222656-33.703124 12.957031-5.65625 28.046875.265624 33.699219 13.222656 5.65625 12.957031-.265625 28.046875-13.222656 33.703125-3.21875 1.402343-6.695313 2.132812-10.207032 2.136719zm0 0" fill="#fbb540"/><path d="m326.257812 336.015625 11.851563-12.277344 17.675781 17.0625-11.855468 12.277344zm0 0" fill="#b3e4e8"/><path d="m418.128906 364.023438h25.597656v17.066406h-25.597656zm0 0" fill="#b3e4e8"/><path d="m366.929688 415.222656h17.066406v25.597656h-17.066406zm0 0" fill="#b3e4e8"/><path d="m256.949219 101.15625c-14.140625 0-25.601563-11.460938-25.601563-25.601562 0-14.136719 11.460938-25.597657 25.601563-25.597657 14.136719 0 25.597656 11.460938 25.597656 25.597657 0 14.140624-11.460937 25.601562-25.597656 25.601562zm0 0" fill="#fbd699"/><path d="m358.398438 51.714844c-14.140626-.007813-25.59375-11.476563-25.582032-25.617188 0-2.71875.433594-5.421875 1.289063-8.003906 4.429687-13.425781 18.902343-20.71875 32.328125-16.289062 13.425781 4.429687 20.71875 18.90625 16.289062 32.332031-3.460937 10.496093-13.273437 17.585937-24.324218 17.578125zm0 0" fill="#fbd699"/><path d="m247.992188 136.1875.429687-24.5625 17.0625.300781-.429687 24.5625zm0 0" fill="#fbd699"/><path d="m293.589844 49.265625 22.859375-11.519531 7.679687 15.238281-22.859375 11.519531zm0 0" fill="#fbd699"/><path d="m256.949219 101.15625c-14.140625 0-25.601563-11.460938-25.601563-25.601562 0-14.136719 11.460938-25.597657 25.601563-25.597657 14.136719 0 25.597656 11.460938 25.597656 25.597657 0 14.140624-11.460937 25.601562-25.597656 25.601562zm0 0" fill="#f7ba61"/><path d="m358.398438 51.714844c-14.140626-.007813-25.59375-11.476563-25.582032-25.617188 0-2.71875.433594-5.421875 1.289063-8.003906 4.429687-13.425781 18.902343-20.71875 32.328125-16.289062 13.425781 4.429687 20.71875 18.90625 16.289062 32.332031-3.460937 10.496093-13.273437 17.585937-24.324218 17.578125zm0 0" fill="#fbb540"/><path d="m247.992188 136.1875.429687-24.5625 17.0625.300781-.429687 24.5625zm0 0" fill="#b3e4e8"/><path d="m293.589844 49.265625 22.859375-11.519531 7.679687 15.238281-22.859375 11.519531zm0 0" fill="#b3e4e8"/><path d="m153.605469 51.714844c-14.136719.011718-25.609375-11.441406-25.621094-25.578125-.003906-4.011719.9375-7.96875 2.742187-11.550781 6.367188-12.625 21.757813-17.699219 34.382813-11.335938 6.0625 3.058594 10.664063 8.398438 12.789063 14.84375 4.429687 13.425781-2.863282 27.902344-16.289063 32.332031-2.582031.851563-5.285156 1.289063-8.003906 1.289063zm0 0" fill="#fbd699"/><path d="m187.867188 52.9375 7.683593-15.238281 22.855469 11.523437-7.679688 15.238282zm0 0" fill="#fbd699"/><path d="m153.605469 51.714844c-14.136719.011718-25.609375-11.441406-25.621094-25.578125-.003906-4.011719.9375-7.96875 2.742187-11.550781 6.367188-12.625 21.757813-17.699219 34.382813-11.335938 6.0625 3.058594 10.664063 8.398438 12.789063 14.84375 4.429687 13.425781-2.863282 27.902344-16.289063 32.332031-2.582031.851563-5.285156 1.289063-8.003906 1.289063zm0 0" fill="#fbb540"/><path d="m187.867188 52.9375 7.683593-15.238281 22.855469 11.523437-7.679688 15.238282zm0 0" fill="#b3e4e8"/><path d="m110.941406 244.5625h17.0625v17.066406h-17.0625zm0 0" fill="#b3e4e8"/><path d="m247.46875 381.089844h17.066406v17.066406h-17.066406zm0 0" fill="#b3e4e8"/><path d="m383.996094 244.5625h17.066406v17.066406h-17.066406zm0 0" fill="#b3e4e8"/><path d="m256 346.957031c51.839844 0 93.863281-42.023437 93.863281-93.863281s-42.023437-93.863281-93.863281-93.863281-93.863281 42.023437-93.863281 93.863281c.0625 51.8125 42.050781 93.800781 93.863281 93.863281zm0-170.660156c42.414062 0 76.796875 34.382813 76.796875 76.796875s-34.382813 76.796875-76.796875 76.796875-76.796875-34.382813-76.796875-76.796875c.050781-42.390625 34.40625-76.746094 76.796875-76.796875zm0 0"/><path d="m217.378906 303.019531c2.515625 1.558594 5.660156 1.699219 8.304688.375l85.328125-42.664062c4.21875-2.101563 5.933593-7.226563 3.832031-11.441407-.828125-1.660156-2.171875-3.003906-3.832031-3.832031l-85.328125-42.664062c-4.214844-2.105469-9.339844-.398438-11.449219 3.816406-.589844 1.1875-.898437 2.496094-.898437 3.820313v85.328124c0 2.960938 1.527343 5.707032 4.042968 7.261719zm13.023438-78.785156 57.71875 28.859375-57.71875 28.859375zm0 0"/><path d="m118.429688 390.65625c9.996093 9.996094 26.207031 10 36.203124.003906.003907-.003906.003907-.003906.003907-.003906 9.992187-9.996094 9.992187-26.203125 0-36.199219-10.132813-9.667969-26.074219-9.667969-36.203125 0-10 9.996094-10 26.207031-.003906 36.203125 0 0 0 .003906.003906.003906v-.007812zm12.074218-24.132812c3.277344-3.390626 8.679688-3.484376 12.066406-.210938 3.390626 3.277344 3.484376 8.675781.210938 12.066406-.070312.070313-.140625.140625-.210938.210938-3.375 3.226562-8.691406 3.226562-12.066406 0-3.328125-3.332032-3.328125-8.734375 0-12.066406zm0 0"/><path d="m43.707031 390.664062c9.996094-9.996093 9.996094-26.203124 0-36.199218-10.132812-9.667969-26.074219-9.667969-36.203125 0-10 9.996094-10.003906 26.207031-.011718 36.207031 9.996093 10 26.207031 10.003906 36.207031.007813zm-26.628906-18.109374c-.003906-4.710938 3.816406-8.53125 8.53125-8.535157 4.710937 0 8.53125 3.820313 8.53125 8.53125.003906 2.265625-.898437 4.4375-2.5 6.039063-3.375 3.226562-8.691406 3.226562-12.0625 0-1.605469-1.597656-2.507813-3.769532-2.5-6.035156zm0 0"/><path d="m126.300781 506.953125c12.953125 5.644531 28.03125-.277344 33.6875-13.226563 5.65625-12.957031-.261719-28.046874-13.222656-33.703124-12.957031-5.65625-28.042969.261718-33.699219 13.21875-5.65625 12.957031.261719 28.046874 13.21875 33.703124.003906 0 .007813.003907.015625.007813zm2.4375-26.878906c1.355469-3.105469 4.414063-5.113281 7.800781-5.121094 1.175782-.003906 2.335938.242187 3.414063.714844 4.316406 1.890625 6.285156 6.921875 4.398437 11.238281-1.886718 4.316406-6.917968 6.289062-11.234374 4.398438-4.320313-1.886719-6.289063-6.914063-4.402344-11.230469zm0 0"/><path d="m156.210938 340.824219 17.671874-17.0625 11.855469 12.277343-17.675781 17.0625zm0 0"/><path d="m68.273438 364.023438h25.601562v17.066406h-25.601562zm0 0"/><path d="m110.941406 133.632812c0 14.136719 11.460938 25.597657 25.601563 25.59375 14.136719 0 25.597656-11.460937 25.59375-25.601562 0-6.785156-2.695313-13.292969-7.492188-18.089844-10.132812-9.660156-26.0625-9.660156-36.195312 0-4.820313 4.785156-7.523438 11.304688-7.507813 18.097656zm19.5625-6.035156c3.335938-3.328125 8.734375-3.328125 12.066406 0 3.332032 3.332032 3.332032 8.734375 0 12.066406-3.375 3.226563-8.691406 3.226563-12.066406 0-3.328125-3.332031-3.328125-8.734374 0-12.066406zm0 0"/><path d="m25.609375 159.230469c14.136719.003906 25.601563-11.457031 25.601563-25.59375 0-6.789063-2.695313-13.300781-7.496094-18.101563-10.132813-9.660156-26.0625-9.660156-36.195313 0-9.996093 9.996094-9.992187 26.207032.003907 36.199219 4.796874 4.796875 11.304687 7.492187 18.085937 7.496094zm-6.03125-31.632813c3.332031-3.328125 8.730469-3.328125 12.0625 0 3.332031 3.332032 3.332031 8.734375 0 12.066406-3.371094 3.226563-8.6875 3.226563-12.0625 0-3.332031-3.332031-3.332031-8.734374 0-12.066406zm0 0"/><path d="m156.210938 165.355469 11.855468-12.277344 17.671875 17.0625-11.855469 12.277344zm0 0"/><path d="m68.273438 125.097656h25.601562v17.066406h-25.601562zm0 0"/><path d="m357.363281 115.523438c-9.992187 10-9.988281 26.210937.011719 36.203124 10 9.996094 26.210938 9.988282 36.203125-.011718 9.988281-9.996094 9.988281-26.195313 0-36.191406-10.132813-9.671876-26.082031-9.671876-36.214844 0zm24.132813 24.140624c-3.375 3.226563-8.691406 3.226563-12.066406 0-3.332032-3.332031-3.332032-8.734374 0-12.066406 3.273437-3.386718 8.675781-3.480468 12.066406-.207031s3.484375 8.675781.210937 12.066406c-.070312.070313-.140625.140625-.210937.207031zm0 0"/><path d="m468.292969 115.523438c-9.992188 10-9.988281 26.210937.011719 36.203124 10 9.996094 26.210937 9.988282 36.203124-.011718 9.988282-9.996094 9.988282-26.195313 0-36.191406-10.132812-9.671876-26.082031-9.671876-36.214843 0zm24.132812 24.140624c-3.375 3.226563-8.691406 3.226563-12.066406 0-3.332031-3.332031-3.332031-8.734374 0-12.066406 3.273437-3.386718 8.675781-3.480468 12.066406-.207031s3.484375 8.675781.207031 12.066406c-.066406.070313-.136718.140625-.207031.207031zm0 0"/><path d="m326.273438 170.167969 17.671874-17.066407 11.855469 12.277344-17.675781 17.066406zm0 0"/><path d="m418.128906 125.097656h25.597656v17.066406h-25.597656zm0 0"/><path d="m128.003906 415.222656h17.066406v25.597656h-17.066406zm0 0"/><path d="m357.363281 390.65625c10 9.996094 26.207031 9.996094 36.207031 0 10-10 9.996094-26.207031 0-36.207031-10.132812-9.667969-26.074218-9.667969-36.207031 0-9.996093 9.996093-9.996093 26.203125 0 36.203125zm12.066407-24.132812c3.273437-3.390626 8.675781-3.484376 12.066406-.207032 3.390625 3.273438 3.484375 8.675782.210937 12.0625-.070312.074219-.140625.140625-.210937.210938-3.375 3.226562-8.691406 3.226562-12.066406 0-3.332032-3.332032-3.332032-8.734375 0-12.066406zm0 0"/><path d="m468.292969 354.449219c-9.996094 9.996093-10 26.203125-.003907 36.203125.003907 0 .003907 0 .003907.003906 10 9.996094 26.207031 9.996094 36.207031 0 9.996094-10 9.996094-26.207031 0-36.207031-10.132812-9.667969-26.074219-9.667969-36.207031 0zm24.132812 24.140625c-3.375 3.226562-8.691406 3.226562-12.066406 0-3.332031-3.332032-3.332031-8.734375 0-12.066406 3.328125-3.335938 8.734375-3.335938 12.066406-.003907s3.332031 8.734375 0 12.066407zm0 0"/><path d="m352.015625 493.726562c5.652344 12.957032 20.738281 18.882813 33.695313 13.230469 12.960937-5.652343 18.882812-20.738281 13.234374-33.699219-5.652343-12.957031-20.742187-18.882812-33.699218-13.230468-.007813.003906-.015625.007812-.023438.007812-12.945312 5.660156-18.855468 20.738282-13.207031 33.691406zm20.035156-18.058593c4.316407-1.890625 9.347657.078125 11.238281 4.394531 1.890626 4.316406-.078124 9.351562-4.394531 11.238281-4.316406 1.890625-9.347656-.074219-11.238281-4.390625 0-.003906 0-.003906 0-.003906-1.890625-4.316406.078125-9.347656 4.394531-11.238281zm0 0"/><path d="m326.257812 336.015625 11.851563-12.277344 17.675781 17.0625-11.855468 12.277344zm0 0"/><path d="m418.128906 364.023438h25.597656v17.066406h-25.597656zm0 0"/><path d="m366.929688 415.222656h17.066406v25.597656h-17.066406zm0 0"/><path d="m282.546875 75.554688c0-14.136719-11.460937-25.597657-25.597656-25.597657-14.140625 0-25.601563 11.460938-25.601563 25.597657 0 14.140624 11.460938 25.601562 25.601563 25.601562 14.136719 0 25.597656-11.460938 25.597656-25.601562zm-25.597656 8.535156c-4.714844 0-8.535157-3.820313-8.535157-8.535156 0-4.710938 3.820313-8.53125 8.535157-8.53125 4.710937 0 8.53125 3.820312 8.53125 8.53125 0 4.714843-3.820313 8.535156-8.53125 8.535156zm0 0"/><path d="m366.410156 1.796875c-13.425781-4.429687-27.902344 2.863281-32.332031 16.289063-4.429687 13.425781 2.863281 27.902343 16.289063 32.332031 13.425781 4.429687 27.902343-2.863281 32.332031-16.289063 4.429687-13.425781-2.863281-27.902344-16.289063-32.332031zm.085938 26.980469c-1.480469 4.476562-6.304688 6.910156-10.78125 5.433594-4.476563-1.480469-6.910156-6.304688-5.433594-10.78125 1.480469-4.476563 6.304688-6.910157 10.78125-5.433594 4.476562 1.476562 6.910156 6.304687 5.433594 10.78125zm0 0"/><path d="m247.992188 136.1875.429687-24.5625 17.0625.300781-.429687 24.5625zm0 0"/><path d="m293.585938 49.21875 22.859374-11.523438 7.683594 15.238282-22.859375 11.523437zm0 0"/><path d="m165.132812 3.246094c-12.625-6.363282-28.019531-1.292969-34.382812 11.332031-3.058594 6.0625-3.582031 13.09375-1.457031 19.542969 4.429687 13.425781 18.902343 20.722656 32.328125 16.296875 13.425781-4.429688 20.722656-18.902344 16.296875-32.328125-2.125-6.449219-6.722657-11.785156-12.785157-14.84375zm-8.847656 30.96875c-4.476562 1.472656-9.300781-.957032-10.777344-5.433594 0 0 0 0 0-.003906-1.472656-4.476563.964844-9.296875 5.445313-10.769532.855469-.28125 1.75-.425781 2.652344-.425781 1.332031.003907 2.644531.320313 3.832031.921875 2.023438 1.011719 3.558594 2.789063 4.265625 4.941406 1.472656 4.46875-.953125 9.285157-5.417969 10.769532zm0 0"/><path d="m187.867188 52.9375 7.683593-15.238281 22.855469 11.523437-7.679688 15.238282zm0 0"/><path d="m110.941406 244.5625h17.0625v17.066406h-17.0625zm0 0"/><path d="m247.46875 381.089844h17.066406v17.066406h-17.066406zm0 0"/><path d="m383.996094 244.5625h17.066406v17.066406h-17.066406zm0 0"/></svg>