<svg id="Capa_1" enable-background="new 0 0 512 512" height="512" viewBox="0 0 512 512" width="512" xmlns="http://www.w3.org/2000/svg"><g><g><path d="m440.38 256c0 66.513-1.99 133.672-5.933 200.587-1.566 26.58-22.549 47.865-49.085 50.06-86.163 7.129-172.746 7.139-258.737.018-26.532-2.197-47.511-23.482-49.077-50.058-3.937-66.814-5.928-134.087-5.928-200.607s1.991-133.793 5.928-200.608c1.566-26.576 22.546-47.861 49.077-50.058 85.991-7.121 172.573-7.111 258.737.018 26.535 2.195 47.518 23.481 49.085 50.06 3.942 66.916 5.933 134.075 5.933 200.588z" fill="#617881"/><path d="m101.825 49.336c-3.4 68.837-5.12 138.137-5.12 206.664s1.72 137.828 5.12 206.664c.917 18.533 9.529 34.583 22.108 43.711-25.25-3.369-44.864-24.096-46.379-49.768-3.946-66.817-5.934-134.088-5.934-200.607s1.988-133.79 5.934-200.607c1.514-25.672 21.129-46.399 46.379-49.768-12.579 9.127-21.191 25.177-22.108 43.711z" fill="#404a4a"/><path d="m255.796 451.784c-42.119 0-84.72-1.53-126.62-4.548-11.191-.806-20.123-8.687-20.776-18.332-3.898-57.53-5.875-115.704-5.875-172.904s1.976-115.373 5.874-172.904c.653-9.645 9.586-17.526 20.777-18.332 41.9-3.018 84.502-4.548 126.622-4.548 42.196 0 84.93 1.536 127.016 4.565 11.194.805 20.127 8.687 20.781 18.333 3.901 57.592 5.88 115.759 5.88 172.886s-1.978 115.294-5.88 172.886c-.653 9.646-9.587 17.528-20.781 18.333-42.087 3.029-84.822 4.565-127.018 4.565z" fill="#dfeaef"/><g fill="#404a4a"><path d="m303.323 39.309h-94.646c-4.267 0-7.726-3.459-7.726-7.726s3.459-7.726 7.726-7.726h94.646c4.268 0 7.726 3.459 7.726 7.726s-3.458 7.726-7.726 7.726z"/><path d="m328.03 39.312c-3.148 0-6.083-2.01-7.205-4.948-1.175-3.075-.25-6.667 2.305-8.754 2.663-2.176 6.528-2.316 9.342-.343 2.705 1.896 3.892 5.399 2.948 8.557-.961 3.216-4.038 5.488-7.39 5.488z"/></g></g><path d="m335.792 241.877h-159.584c-12.314 0-22.296 9.982-22.296 22.296v80.106c0 12.314 9.982 22.296 22.296 22.296h159.584c12.314 0 22.296-9.982 22.296-22.296v-80.106c0-12.313-9.982-22.296-22.296-22.296z" fill="#f4dd45"/><g><path d="m379.007 85.129c-1.393-14.752-13.177-26.388-27.951-27.53-63.371-4.898-126.742-4.898-190.113 0-14.774 1.142-26.558 12.778-27.951 27.53-5.133 54.358-5.134 108.716-.004 163.074 1.393 14.762 13.172 26.431 27.955 27.574 14.887 1.151 29.775 2.028 44.662 2.636 8.409.344 16.092 4.849 20.493 12.022l18.331 29.877c5.297 8.634 17.842 8.634 23.139 0l18.331-29.877c4.401-7.173 12.085-11.679 20.493-12.022 14.888-.608 29.776-1.486 44.663-2.636 14.783-1.143 26.562-12.812 27.955-27.574 5.132-54.358 5.13-108.716-.003-163.074z" fill="#dd636e"/><g><path d="m350.35 153.802c0 42.601-50.502 84.261-94.35 106.676-12.65-6.447-25.83-14.515-38.195-23.739-30.58-22.748-56.154-52.612-56.154-82.936 0-33.779 23.053-61.209 51.63-61.699.255-.01.52-.01.785-.01 23.161 0 41.934 22.111 41.934 49.364 0-27.253 18.774-49.364 41.924-49.364 16.929 0 31.964 9.431 41.542 24.073 6.84 10.421 10.884 23.473 10.884 37.635z" fill="#dfeaef"/><path d="m256 260.477c-12.65-6.447-25.83-14.515-38.195-23.739-30.58-22.748-56.154-52.612-56.154-82.936 0-33.779 23.053-61.209 51.63-61.699-45.046 1.442-20.295 126.528 42.719 168.374z" fill="#b4d0d5"/></g></g><g fill="#b4d0d5"><path d="m277.239 402.728h-123.327c-4.267 0-7.726-3.459-7.726-7.726s3.459-7.726 7.726-7.726h123.327c4.268 0 7.726 3.459 7.726 7.726s-3.458 7.726-7.726 7.726z"/><path d="m234.76 428.764h-80.848c-4.267 0-7.726-3.459-7.726-7.726s3.459-7.726 7.726-7.726h80.848c4.267 0 7.726 3.459 7.726 7.726s-3.459 7.726-7.726 7.726z"/></g></g></svg>