<svg id="Capa_1" enable-background="new 0 0 512 512" height="512" viewBox="0 0 512 512" width="512" xmlns="http://www.w3.org/2000/svg"><g><g><path d="m511.948 459.391v-179.334c0-29.055-23.554-52.609-52.609-52.609h-262.551c-29.055 0-52.609 23.554-52.609 52.609v179.334c0 29.055 23.554 52.609 52.609 52.609h262.552c29.054 0 52.608-23.554 52.608-52.609z" fill="#66b49d"/><path d="m481.049 437.451v-135.453c-24.107 0-43.65-19.543-43.65-43.65h-218.67c0 24.107-19.543 43.65-43.65 43.65v135.452c24.107 0 43.65 19.543 43.65 43.65h218.67c-.001-24.106 19.542-43.649 43.65-43.649z" fill="#86f1a7"/><g fill="#66b49d"><circle cx="328.064" cy="369.724" r="71.905"/><path d="m450.206 377.449h-24.488c-4.266 0-7.725-3.459-7.725-7.725s3.459-7.725 7.725-7.725h24.488c4.266 0 7.725 3.459 7.725 7.725s-3.459 7.725-7.725 7.725z"/><path d="m223.193 377.449h-24.488c-4.266 0-7.725-3.459-7.725-7.725s3.459-7.725 7.725-7.725h24.488c4.266 0 7.725 3.459 7.725 7.725s-3.459 7.725-7.725 7.725z"/></g><path d="m339.287 361.96c-1.326-.469-2.676-.956-4.028-1.457v-24.294c2.225.85 3.674 1.91 4.172 2.309 3.33 2.667 8.192 2.129 10.858-1.2 2.667-3.33 2.129-8.191-1.2-10.858-1.866-1.494-6.729-4.883-13.83-6.287v-4.184c0-4.266-3.459-7.725-7.725-7.725s-7.725 3.459-7.725 7.725v4.744c-.462.121-.927.249-1.398.391-9.116 2.746-15.925 10.528-17.768 20.308-1.692 8.977 1.224 17.664 7.609 22.672 3.004 2.356 6.664 4.516 11.557 6.76v32.336c-3.436-.492-6.024-1.67-10.14-4.363-3.571-2.337-8.358-1.335-10.694 2.235s-1.335 8.358 2.235 10.694c7.275 4.759 12.412 6.439 18.598 6.978v4.717c0 4.266 3.459 7.725 7.725 7.725s7.725-3.459 7.725-7.725v-5.461c12.754-3.252 20.929-14.154 22.736-24.903 2.328-13.846-5.19-26.359-18.707-31.137zm-21.5-10.013c-1.801-1.413-2.571-4.418-1.961-7.654.437-2.322 1.7-4.995 3.983-6.784v15.868c-.727-.469-1.404-.945-2.022-1.43zm24.972 38.589c-.693 4.124-3.24 8.458-7.5 10.931v-24.485c8.188 3.498 8.001 10.575 7.5 13.554z" fill="#86f1a7"/></g><g><path d="m306.739 100.294c0 69.238-82.079 136.947-153.343 173.376-20.56-10.479-41.98-23.59-62.077-38.583-49.7-36.972-91.266-85.508-91.266-134.793 0-54.9 37.467-99.48 83.913-100.278.414-.016.844-.016 1.275-.016 37.642 0 68.154 35.936 68.154 80.229 0-44.293 30.513-80.229 68.139-80.229 27.514 0 51.949 15.329 67.516 39.126 11.117 16.939 17.689 38.152 17.689 61.168z" fill="#dd636e"/><path d="m153.395 273.671c-20.56-10.479-41.98-23.59-62.077-38.583-49.7-36.972-91.266-85.508-91.266-134.793 0-54.9 37.467-99.48 83.913-100.278-73.211 2.344-32.985 205.642 69.43 273.654z" fill="#c63d4f"/></g><g fill="#6bbef6"><path d="m464.047 199.109c-16.676-56.273-54.462-103.79-105.017-132.917l32.794-9.446c4.1-1.181 6.466-5.461 5.285-9.561-1.18-4.1-5.459-6.467-9.561-5.285l-51.344 14.788c-4.1 1.181-6.466 5.462-5.285 9.561l14.788 51.344c.975 3.386 4.064 5.589 7.42 5.589.708 0 1.427-.098 2.141-.304 4.1-1.181 6.466-5.461 5.285-9.561l-9.816-34.081c47.432 27.129 82.887 71.584 98.497 124.262.995 3.358 4.071 5.532 7.403 5.532.727 0 1.466-.104 2.198-.32 4.091-1.212 6.424-5.511 5.212-9.601z"/><path d="m102.919 370.694c-4.268-.053-7.78 3.33-7.851 7.597l-.596 36.143c-39.714-39.79-62.194-93.691-62.194-150.353 0-7.999.448-16.057 1.332-23.948.475-4.24-2.578-8.062-6.818-8.536-4.242-.475-8.062 2.577-8.536 6.818-.947 8.46-1.427 17.096-1.427 25.667 0 60.043 23.541 117.188 65.182 159.708l-33.396-.552c-.044-.001-.087-.001-.13-.001-4.207 0-7.651 3.375-7.721 7.597-.07 4.266 3.33 7.781 7.596 7.852l53.424.882c.043.001.085.001.128.001 2.003 0 3.93-.778 5.371-2.173 1.473-1.425 2.319-3.376 2.353-5.424l.882-53.424c.068-4.268-3.333-7.783-7.599-7.854z"/></g></g></svg>